<?xml version="1.0" encoding="utf-8"?>
<!-- Generator: Adobe Illustrator 19.0.0, SVG Export Plug-In . SVG Version: 6.00 Build 0)  -->
<svg version="1.1" id="Layer_1" xmlns="http://www.w3.org/2000/svg" xmlns:xlink="http://www.w3.org/1999/xlink" x="0px" y="0px"
	 viewBox="-199.9 59.8 411.6 443.2" style="enable-background:new -199.9 59.8 411.6 443.2;" xml:space="preserve">
<g>
	<path id="XMLID_31_" fill="#135a2e" d="M194.3,60.5c-17.6,12.3-33.9,23.3-49.8,34.7c-16.1,11.6-31.4,24.3-47.5,35.9
		c-20.6,14.9-41.3,29.8-62.5,43.7C22,183,9.9,190.5-0.4,202.3c-11.5,13.2-26.4,23.3-40.1,34.4c-14.9,12-29.9,24.1-45.5,35.4
		c-16.5,11.9-34,22.5-50.6,34.2c-14.9,10.5-29.5,21.7-43.9,32.8c-6.4,4.9-12.3,10.5-19.4,14.8c4.3-5.9,8.4-11.9,12.9-17.5
		c15.6-19.7,30.7-39.7,47-58.5c8.8-10.1,19.9-18.3,30.1-27.1c17.2-14.9,35.8-28.5,51.7-44.8c18.8-19,35.8-40,60.6-51.5
		c32.7-14.9,62.1-35.5,92.1-54.9c13.7-8.8,28.7-14.2,44.1-19.3c16.7-5.6,33.2-12.3,49.7-18.4C189.6,61.4,191,61.2,194.3,60.5z"/>
	<path id="XMLID_30_" fill="#135a2e" d="M211.7,145.3c-16.4,11.4-33,22.2-48.8,34.4c-10.5,8-20.3,17.2-29.5,26.7c-18.3,18.9-39.6,33.9-60.9,49.1
		C50.9,270.9,31.1,289,9.9,305.1c-16.1,12.4-33.1,23.6-49.7,35.1c-36.9,25.7-74.6,50.5-107.3,81.8c-9.6,9.2-19.7,17.9-31,28.2
		c0.9-3.2,1-4.5,1.7-5.4c19.2-24.8,38.5-49.4,57.7-74.2c5.2-6.8,10-13.9,15.7-20.3c3.6-4,8.4-6.6,12.9-9.6
		c27.7-18.5,54.2-38.6,78.3-61.4c4.2-4,7.7-9.2,12.5-12.3c9.1-5.7,18.8-10.6,28.4-15.6c19-10,37.4-20.8,53.4-35.5
		c13.9-12.8,28.9-23.6,46.1-31.8c27.7-12.9,54.9-27,82.3-40.5C211.1,144.5,211.3,144.9,211.7,145.3z"/>
	<path id="XMLID_28_" fill="#135a2e" d="M200.2,246.2c-17.9,16.2-35.3,33-53.7,48.5c-28.2,23.9-58.3,45.7-85.5,70.8C45,380.4,25.5,389.4,8.7,402.8
		c-10.5,8.4-20.3,17.9-30.7,26.6c-16.6,13.9-33.5,27.3-50.1,41.3c-12.6,10.6-24.9,21.7-37,32.3c5.6-14.1,14.8-26.4,25.3-37.9
		c15.3-16.9,29.9-34.4,46-50.3c13.9-13.9,29.3-26.2,44.2-39.1c9.6-8.3,19.3-16.4,29.3-24.1c5.5-4.2,11.2-8.6,17.5-11.2
		c14.3-6.1,25.3-16.1,35.9-27.2c6.1-6.5,13.2-12.5,20.7-17.2c16.1-10.1,32.7-19.4,49.3-28.7c11.2-6.4,22.7-12.3,34.1-18.3
		c2.2-1.1,4.3-2.2,6.5-3.2C200,245.8,200.1,246,200.2,246.2z"/>
</g>
</svg>
